<svg width="120" height="127" viewBox="0 0 120 127" fill="none" xmlns="http://www.w3.org/2000/svg">
<path d="M88.4111 24.7803C102.422 34.5272 111.635 51.0343 111.635 69.7585" stroke="#3EC2CF" stroke-width="6" stroke-miterlimit="10" stroke-linecap="round" stroke-linejoin="round"/>
<path d="M8.65057 85.887C7.11175 80.7919 6.2832 75.3745 6.2832 69.7585C6.2832 47.8526 18.8926 28.9803 37.0438 20.4189" stroke="#3EC2CF" stroke-width="6" stroke-miterlimit="10" stroke-linecap="round" stroke-linejoin="round"/>
<path d="M79.2439 119.833C73.0001 122.518 66.1474 124 58.959 124C41.8374 124 26.6229 115.588 17.002 102.559" stroke="#3EC2CF" stroke-width="6" stroke-miterlimit="10" stroke-linecap="round" stroke-linejoin="round"/>
<path d="M88.2725 42.6797C93.7489 48.9611 97.3492 57.0124 98.1638 65.9002" stroke="#3EC2CF" stroke-width="6" stroke-miterlimit="10" stroke-linecap="round" stroke-linejoin="round"/>
<path d="M19.7325 73.3759C19.6306 72.1837 19.5781 70.9777 19.5781 69.7585C19.5781 55.9352 26.2945 43.7271 36.5494 36.4077" stroke="#3EC2CF" stroke-width="6" stroke-miterlimit="10" stroke-linecap="round" stroke-linejoin="round"/>
<path d="M66.219 109.621C63.8656 110.073 61.4388 110.309 58.959 110.309C46.5476 110.309 35.477 104.395 28.2578 95.1572" stroke="#3EC2CF" stroke-width="6" stroke-miterlimit="10" stroke-linecap="round" stroke-linejoin="round"/>
<path d="M58.9593 85.5299C67.4174 85.5299 74.274 78.4693 74.274 69.7596C74.274 61.0499 67.4174 53.9893 58.9593 53.9893C50.5012 53.9893 43.6445 61.0499 43.6445 69.7596C43.6445 78.4693 50.5012 85.5299 58.9593 85.5299Z" stroke="#3EC2CF" stroke-width="7" stroke-miterlimit="10" stroke-linecap="round" stroke-linejoin="round"/>
<path d="M58.9591 74.9589C61.7481 74.9589 64.0091 72.6307 64.0091 69.7588C64.0091 66.8868 61.7481 64.5586 58.9591 64.5586C56.1701 64.5586 53.9092 66.8868 53.9092 69.7588C53.9092 72.6307 56.1701 74.9589 58.9591 74.9589Z" stroke="#3EC2CF" stroke-width="7" stroke-miterlimit="10" stroke-linecap="round" stroke-linejoin="round"/>
<path d="M54.0147 54.3801V5.68738C54.0147 5.68738 53.8224 3.50819 56.5132 4.10279C56.5132 4.10279 75.1585 9.64496 75.1585 39.9298C75.1585 39.9298 74.729 52.2111 69.7519 57.6717" stroke="#3EC2CF" stroke-width="7" stroke-miterlimit="10" stroke-linecap="round" stroke-linejoin="round"/>
<path d="M74.7895 72.957L115.585 97.5467C115.585 97.5467 117.508 98.4755 115.648 100.566C115.648 100.566 101.572 114.327 76.1996 99.0329C76.1996 99.0329 66.7831 92.5169 64.0557 85.2342" stroke="#3EC2CF" stroke-width="7" stroke-miterlimit="10" stroke-linecap="round" stroke-linejoin="round"/>
<path d="M48.1628 82.8395L7.1759 107.091C7.1759 107.091 5.43956 108.347 4.60052 105.649C4.60052 105.649 -0.00893686 86.2331 25.4838 71.1516C25.4838 71.1516 35.8261 65.646 43.3262 67.1772" stroke="#3EC2CF" stroke-width="7" stroke-miterlimit="10" stroke-linecap="round" stroke-linejoin="round"/>
</svg>
