<svg width="123" height="123" viewBox="0 0 123 123" fill="none" xmlns="http://www.w3.org/2000/svg">
<path d="M61.5049 8.88721V114.227" stroke="#34A8CF" stroke-width="6" stroke-miterlimit="10" stroke-linecap="round" stroke-linejoin="round"/>
<path d="M113.927 61.5566H9.08203" stroke="#34A8CF" stroke-width="6" stroke-miterlimit="10" stroke-linecap="round" stroke-linejoin="round"/>
<path d="M106.206 16.645L16.8027 106.469" stroke="#34A8CF" stroke-width="6" stroke-miterlimit="10" stroke-linecap="round" stroke-linejoin="round"/>
<path d="M106.206 106.469L16.8027 16.645" stroke="#34A8CF" stroke-width="6" stroke-miterlimit="10" stroke-linecap="round" stroke-linejoin="round"/>
<path d="M61.5022 28.4714L37.0518 4V36.6473L61.5096 61.219L61.5022 28.4714Z" stroke="#34A8CF" stroke-width="8" stroke-miterlimit="10" stroke-linecap="round" stroke-linejoin="round"/>
<path d="M61.5103 28.4714L85.9595 4V36.6473L61.5029 61.219L61.5103 28.4714Z" stroke="#34A8CF" stroke-width="8" stroke-miterlimit="10" stroke-linecap="round" stroke-linejoin="round"/>
<path d="M61.5093 94.5279L85.9598 119V86.3521L61.502 61.7803L61.5093 94.5279Z" stroke="#34A8CF" stroke-width="8" stroke-miterlimit="10" stroke-linecap="round" stroke-linejoin="round"/>
<path d="M61.501 94.5279L37.0518 119V86.3521L61.5084 61.7803L61.501 94.5279Z" stroke="#34A8CF" stroke-width="8" stroke-miterlimit="10" stroke-linecap="round" stroke-linejoin="round"/>
<path d="M28.6315 61.503L4.27539 86.068H36.769L61.2268 61.4956L28.6315 61.503Z" stroke="#34A8CF" stroke-width="8" stroke-miterlimit="10" stroke-linecap="round" stroke-linejoin="round"/>
<path d="M28.6315 61.4954L4.27539 36.9304H36.769L61.2268 61.5028L28.6315 61.4954Z" stroke="#34A8CF" stroke-width="8" stroke-miterlimit="10" stroke-linecap="round" stroke-linejoin="round"/>
<path d="M94.3795 61.4952L118.734 36.9302H86.2408L61.7842 61.5026L94.3795 61.4952Z" stroke="#34A8CF" stroke-width="8" stroke-miterlimit="10" stroke-linecap="round" stroke-linejoin="round"/>
<path d="M94.3795 61.5034L118.734 86.0671H86.2408L61.7842 61.4966L94.3795 61.5034Z" stroke="#34A8CF" stroke-width="8" stroke-miterlimit="10" stroke-linecap="round" stroke-linejoin="round"/>
</svg>
