<svg width="120" height="118" viewBox="0 0 120 118" fill="none" xmlns="http://www.w3.org/2000/svg">
<path d="M22.3076 41.5032C32.2666 41.5032 40.3399 33.1898 40.3399 22.9346C40.3399 12.6794 32.2666 4.36597 22.3076 4.36597C12.3487 4.36597 4.27539 12.6794 4.27539 22.9346C4.27539 33.1898 12.3487 41.5032 22.3076 41.5032Z" stroke="#227CB5" stroke-width="7" stroke-miterlimit="10" stroke-linecap="round" stroke-linejoin="round"/>
<path d="M22.3078 28.6697C25.3838 28.6697 27.8774 26.1019 27.8774 22.9344C27.8774 19.767 25.3838 17.1992 22.3078 17.1992C19.2318 17.1992 16.7383 19.767 16.7383 22.9344C16.7383 26.1019 19.2318 28.6697 22.3078 28.6697Z" stroke="#227CB5" stroke-width="7" stroke-miterlimit="10" stroke-linecap="round" stroke-linejoin="round"/>
<path d="M83.6425 32.3346C83.6425 34.2098 82.1663 35.7319 80.3433 35.7319H67.8761C66.0543 35.7319 64.5762 34.2098 64.5762 32.3346V14.0674C64.5762 12.1901 66.0543 10.6687 67.8761 10.6687H80.3433C82.1663 10.6687 83.6425 12.1901 83.6425 14.0674V32.3346Z" stroke="#227CB5" stroke-width="7" stroke-miterlimit="10" stroke-linecap="round" stroke-linejoin="round"/>
<path d="M39.7539 15.7251H63.76" stroke="#227CB5" stroke-width="7" stroke-miterlimit="10" stroke-linecap="round" stroke-linejoin="round"/>
<path d="M39.8721 30.6748H62.8225" stroke="#227CB5" stroke-width="7" stroke-miterlimit="10" stroke-linecap="round" stroke-linejoin="round"/>
<path d="M84.3672 13.6469L92.7991 4L115.751 17.2638" stroke="#227CB5" stroke-width="7" stroke-miterlimit="10" stroke-linecap="round" stroke-linejoin="round"/>
<path d="M84.3672 32.2216L92.7991 41.8685L115.751 28.604" stroke="#227CB5" stroke-width="7" stroke-miterlimit="10" stroke-linecap="round" stroke-linejoin="round"/>
<path d="M99.3888 114.153V97.8857C99.3888 95.4169 97.4452 93.4141 95.0477 93.4141H26.3229C23.9255 93.4141 21.9805 95.4169 21.9805 97.8857V114.153H99.3888Z" stroke="#227CB5" stroke-width="7" stroke-miterlimit="10" stroke-linecap="round" stroke-linejoin="round"/>
<path d="M16.9209 40.719L39.1678 92.5683" stroke="#227CB5" stroke-width="7" stroke-miterlimit="10" stroke-linecap="round" stroke-linejoin="round"/>
<path d="M33.7822 37.343L82.964 92.8106" stroke="#227CB5" stroke-width="7" stroke-miterlimit="10" stroke-linecap="round" stroke-linejoin="round"/>
</svg>
