<svg width="34" height="34" viewBox="0 0 34 34" fill="none" xmlns="http://www.w3.org/2000/svg">
<path d="M17.3415 22.6184C20.4302 22.6184 22.934 20.1028 22.934 16.9996C22.934 13.8964 20.4302 11.3807 17.3415 11.3807C14.2529 11.3807 11.749 13.8964 11.749 16.9996C11.749 20.1028 14.2529 22.6184 17.3415 22.6184Z" stroke="#33A8CF" stroke-width="3" stroke-miterlimit="10" stroke-linecap="round" stroke-linejoin="round"/>
<path d="M32.2717 19.2154V14.7839L28.4143 13.9093C28.159 12.9991 27.7953 12.1347 27.3383 11.3308L29.4581 7.96009L26.3395 4.8264L22.9648 6.96838C22.172 6.52093 21.3214 6.16601 20.4268 5.91691L19.547 2H15.1362L14.2568 5.91653C13.3618 6.16641 12.5112 6.52093 11.718 6.96798L8.34369 4.8264L5.22469 7.95971L7.34456 11.3308C6.88717 12.1351 6.52382 12.9991 6.26811 13.9093L2.41113 14.7839V19.2154L6.23469 20.0821C6.48573 21.0141 6.85025 21.8989 7.31153 22.7219L5.22469 26.0399L8.34369 29.1732L11.6267 27.089C12.4536 27.5654 13.3436 27.9417 14.2824 28.2006L15.1358 32H19.5466L20.3996 28.201C21.3389 27.9414 22.2288 27.565 23.055 27.089L26.3387 29.1736L29.4574 26.0399L27.3701 22.7215C27.8318 21.8989 28.1959 21.0145 28.447 20.0821L32.2717 19.2154Z" stroke="#33A8CF" stroke-width="3" stroke-miterlimit="10" stroke-linecap="round" stroke-linejoin="round"/>
</svg>
