<svg width="46" height="47" viewBox="0 0 46 47" fill="none" xmlns="http://www.w3.org/2000/svg">
<path d="M22.7412 3.82599V43.185" stroke="#172933" stroke-width="2.3" stroke-miterlimit="10" stroke-linecap="round" stroke-linejoin="round"/>
<path d="M42.3278 23.505H3.15332" stroke="#172933" stroke-width="2.3" stroke-miterlimit="10" stroke-linecap="round" stroke-linejoin="round"/>
<path d="M39.4437 6.724L6.03906 40.287" stroke="#172933" stroke-width="2.3" stroke-miterlimit="10" stroke-linecap="round" stroke-linejoin="round"/>
<path d="M39.4437 40.287L6.03906 6.724" stroke="#172933" stroke-width="2.3" stroke-miterlimit="10" stroke-linecap="round" stroke-linejoin="round"/>
<path d="M22.7395 11.143L13.6035 2V14.198L22.7415 23.379L22.7395 11.143Z" stroke="#172933" stroke-width="2.53" stroke-miterlimit="10" stroke-linecap="round" stroke-linejoin="round"/>
<path d="M22.7412 11.143L31.8772 2V14.198L22.7393 23.379L22.7412 11.143Z" stroke="#172933" stroke-width="2.53" stroke-miterlimit="10" stroke-linecap="round" stroke-linejoin="round"/>
<path d="M22.7412 35.825L31.8772 44.968V32.77L22.7393 23.588L22.7412 35.825Z" stroke="#172933" stroke-width="2.53" stroke-miterlimit="10" stroke-linecap="round" stroke-linejoin="round"/>
<path d="M22.7395 35.825L13.6035 44.968V32.77L22.7415 23.588L22.7395 35.825Z" stroke="#172933" stroke-width="2.53" stroke-miterlimit="10" stroke-linecap="round" stroke-linejoin="round"/>
<path d="M10.4576 23.485L1.35742 32.664H13.4982L22.6362 23.482L10.4576 23.485Z" stroke="#172933" stroke-width="2.53" stroke-miterlimit="10" stroke-linecap="round" stroke-linejoin="round"/>
<path d="M10.4576 23.482L1.35742 14.303H13.4982L22.6362 23.485L10.4576 23.482Z" stroke="#172933" stroke-width="2.53" stroke-miterlimit="10" stroke-linecap="round" stroke-linejoin="round"/>
<path d="M35.0243 23.482L44.1245 14.303H31.9837L22.8457 23.485L35.0243 23.482Z" stroke="#172933" stroke-width="2.53" stroke-miterlimit="10" stroke-linecap="round" stroke-linejoin="round"/>
<path d="M35.0243 23.485L44.1245 32.664H31.9837L22.8457 23.483L35.0243 23.485Z" stroke="#172933" stroke-width="2.53" stroke-miterlimit="10" stroke-linecap="round" stroke-linejoin="round"/>
</svg>
