<svg width="179" height="38" viewBox="0 0 179 38" fill="none" xmlns="http://www.w3.org/2000/svg">
<path d="M0.289062 0H10.6194V15.1947L23.4527 0H35.7L21.5884 16.104L36.1793 37.4508H23.7725L14.3999 23.5404L10.6194 27.7665V37.45H0.289062V0Z" fill="#172933"/>
<path d="M38.4646 16.2643H55.9308V25.1987H38.4646V16.2643Z" fill="#172933"/>
<path d="M70.2821 9.09473H59.0994V0H91.7952V9.09473H80.6124V37.4508H70.2821V9.09473Z" fill="#172933"/>
<path d="M153.421 18.4042L141.174 0H153.05L159.652 10.54L166.31 0H177.918L165.67 18.2976L178.45 37.4508H166.575L159.44 26.1617L152.252 37.4508H140.643L153.421 18.4042Z" fill="#172933"/>
<path d="M132.453 28.6734H99.4583V37.4524H132.453V28.6734Z" fill="#227CB5"/>
<path d="M132.453 0H99.4583V8.77978H132.453V0Z" fill="#3EC2CF"/>
<path d="M132.453 14.3359H99.4583V23.1173H132.453V14.3359Z" fill="#34A8CF"/>
</svg>
