<svg width="112" height="24" viewBox="0 0 112 24" fill="none" xmlns="http://www.w3.org/2000/svg">
<path d="M0.9375 0.618164H7.33869V10.0188L15.2909 0.618164H22.8799L14.1357 10.5814L23.1769 23.7882H15.489L9.68127 15.1821L7.33869 17.7967V23.7877H0.9375V0.618164Z" fill="#172933"/>
<path d="M24.5933 10.6802H35.4162V16.2078H24.5933V10.6802Z" fill="#172933"/>
<path d="M44.3088 6.24489H37.3794V0.618164H57.6394V6.24489H50.71V23.7882H44.3088V6.24489Z" fill="#172933"/>
<path d="M95.8258 12.0044L88.2368 0.618164H95.5961L99.6868 7.13905L103.812 0.618164H111.005L103.416 11.9385L111.335 23.7882H103.977L99.5554 16.8039L95.1014 23.7882H87.9077L95.8258 12.0044Z" fill="#172933"/>
<path d="M82.8331 18.3579H62.3877V23.7893H82.8331V18.3579Z" fill="#227CB5"/>
<path d="M82.8331 0.618164H62.3877V6.05003H82.8331V0.618164Z" fill="#3EC2CF"/>
<path d="M82.8331 9.48779H62.3877V14.9206H82.8331V9.48779Z" fill="#34A8CF"/>
</svg>
