<svg width="42" height="42" viewBox="0 0 42 42" fill="none" xmlns="http://www.w3.org/2000/svg">
<path d="M7.77185 14.847C11.2685 14.847 14.103 11.9991 14.103 8.48599C14.103 4.97291 11.2685 2.125 7.77185 2.125C4.27523 2.125 1.44067 4.97291 1.44067 8.48599C1.44067 11.9991 4.27523 14.847 7.77185 14.847Z" stroke="#172933" stroke-width="2.76" stroke-miterlimit="10" stroke-linecap="round" stroke-linejoin="round"/>
<path d="M7.7717 10.451C8.85186 10.451 9.7275 9.57123 9.7275 8.48599C9.7275 7.40075 8.85186 6.521 7.7717 6.521C6.69155 6.521 5.81592 7.40075 5.81592 8.48599C5.81592 9.57123 6.69155 10.451 7.7717 10.451Z" stroke="#172933" stroke-width="2.3" stroke-miterlimit="10" stroke-linecap="round" stroke-linejoin="round"/>
<path d="M29.3063 11.706C29.3063 12.349 28.7877 12.869 28.1477 12.869H23.7713C23.1314 12.869 22.6128 12.348 22.6128 11.706V5.448C22.6128 4.805 23.1314 4.284 23.7713 4.284H28.1477C28.7887 4.284 29.3063 4.805 29.3063 5.448V11.706Z" stroke="#172933" stroke-width="2.3" stroke-miterlimit="10" stroke-linecap="round" stroke-linejoin="round"/>
<path d="M13.8979 6.01599H22.3253" stroke="#172933" stroke-width="2.76" stroke-miterlimit="10" stroke-linecap="round" stroke-linejoin="round"/>
<path d="M13.9387 11.137H21.9958" stroke="#172933" stroke-width="2.76" stroke-miterlimit="10" stroke-linecap="round" stroke-linejoin="round"/>
<path d="M29.5613 5.30399L32.5213 2L40.5794 6.54401" stroke="#172933" stroke-width="2.3" stroke-miterlimit="10" stroke-linecap="round" stroke-linejoin="round"/>
<path d="M29.5613 11.667L32.5213 14.971L40.5794 10.427" stroke="#172933" stroke-width="2.3" stroke-miterlimit="10" stroke-linecap="round" stroke-linejoin="round"/>
<path d="M34.8355 39.733V34.161C34.8355 33.315 34.1527 32.63 33.3116 32.63H9.18228C8.34024 32.63 7.65845 33.316 7.65845 34.161V39.733H34.8355Z" stroke="#172933" stroke-width="2.76" stroke-miterlimit="10" stroke-linecap="round" stroke-linejoin="round"/>
<path d="M5.88062 14.578L13.6918 32.34" stroke="#172933" stroke-width="2.76" stroke-miterlimit="10" stroke-linecap="round" stroke-linejoin="round"/>
<path d="M11.8008 13.422L29.0685 32.423" stroke="#172933" stroke-width="2.76" stroke-miterlimit="10" stroke-linecap="round" stroke-linejoin="round"/>
</svg>
