<?xml version="1.0" encoding="utf-8"?>
<!-- Generator: Adobe Illustrator 16.0.0, SVG Export Plug-In . SVG Version: 6.00 Build 0)  -->
<!DOCTYPE svg PUBLIC "-//W3C//DTD SVG 1.1//EN" "http://www.w3.org/Graphics/SVG/1.1/DTD/svg11.dtd">
<svg version="1.1" id="Livello_1" xmlns="http://www.w3.org/2000/svg" xmlns:xlink="http://www.w3.org/1999/xlink" x="0px" y="0px"
	 width="242px" height="52px" viewBox="0 0 242 52" enable-background="new 0 0 242 52" xml:space="preserve">
<path fill="#1D1D1B" d="M237.714,3.963c0.402,0,0.757,0.027,0.757,0.452c0,0.457-0.624,0.382-1.079,0.382h-0.514V3.963H237.714z
	 M238.059,5.28c0.451-0.017,0.896-0.258,0.896-0.914c0-0.708-0.545-0.892-1.151-0.892h-1.414v3.359h0.488V5.28h0.623l0.854,1.554
	h0.554L238.059,5.28z M237.544,8.115c1.671,0,2.994-1.321,2.994-2.986c0-1.662-1.323-2.983-2.994-2.983
	c-1.669,0-2.992,1.321-2.992,2.983C234.552,6.793,235.875,8.115,237.544,8.115 M237.544,2.631c1.365,0,2.504,1.089,2.504,2.498
	c0,1.402-1.139,2.501-2.504,2.501s-2.505-1.099-2.505-2.501C235.039,3.72,236.179,2.631,237.544,2.631"/>
<polygon fill="#1D1D1B" points="222.604,2.253 222.604,17.363 211.255,2.253 205.596,2.253 205.596,21.138 209.371,21.138 
	209.371,6.046 220.716,21.138 226.375,21.138 226.375,2.253 "/>
<path fill="#1D1D1B" d="M194.264,5.916l3.768,8.216h-7.491L194.264,5.916z M192.379,2.26l-9.449,18.877h4.277l1.819-3.948h10.302
	l1.985,3.948h4.271L196.148,2.26H192.379z"/>
<path fill="#1D1D1B" d="M154.604,10.727h-13.223v3.309h8.967c-1.16,2.752-4.303,4.736-8.013,4.736h-0.007
	c-4.692,0-8.488-3.167-8.488-7.074c0-3.911,3.798-7.075,8.491-7.075l0.96,0.007c2.111,0,4.063,0.529,5.635,1.403l0.011-3.718
	c-1.713-0.637-3.63-0.992-5.651-0.992h-0.957c-6.77,0-12.261,4.652-12.261,10.376c0,5.729,5.489,10.375,12.261,10.375h0.007
	c6.771,0,12.265-4.646,12.265-10.375h-0.006l0.01-0.027V10.727z"/>
<path fill="#1D1D1B" d="M179.153,10.727h-13.227v3.309h8.973c-1.158,2.752-4.306,4.736-8.013,4.736h-0.007
	c-4.686,0-8.494-3.167-8.494-7.074c0-3.911,3.809-7.075,8.499-7.075l0.958,0.007c2.112,0,4.063,0.529,5.635,1.403l0.006-3.718
	c-1.712-0.637-3.629-0.992-5.65-0.992h-0.953c-6.773,0-12.266,4.652-12.266,10.376c0,5.729,5.492,10.375,12.266,10.375h0.007
	c6.771,0,12.261-4.646,12.261-10.375h-0.001l0.007-0.027V10.727z"/>
<polygon fill="#1D1D1B" points="111.188,2.253 111.188,21.138 130.069,21.138 130.069,17.86 114.967,17.86 114.967,13.572 
	126.297,13.572 126.297,10.139 114.949,10.139 114.949,5.531 130.069,5.531 130.069,2.253 "/>
<polygon fill="#1D1D1B" points="86.639,2.245 86.639,21.132 90.413,21.132 90.413,13.604 105.492,13.604 105.492,21.132 
	109.264,21.132 109.264,2.254 105.488,2.254 105.492,9.799 90.413,9.799 90.413,2.245 "/>
<path fill="#1D1D1B" d="M59.25,18.771c-4.691,0-8.492-3.167-8.492-7.071c0-3.911,3.801-7.078,8.492-7.078l0.96,0.007
	c2.114,0,4.062,0.529,5.637,1.402l0.007-3.717c-1.712-0.638-3.628-0.995-5.652-0.995h-0.956c-6.77,0-12.263,4.654-12.263,10.379
	c0,5.728,5.493,10.374,12.263,10.374l0.956-0.054c2.023,0,3.94-0.353,5.652-0.991l-0.007-3.709
	c-1.575,0.874-3.523,1.395-5.637,1.395L59.25,18.771z"/>
<path fill="#1D1D1B" d="M78.123,18.771c-4.688,0-8.491-3.167-8.491-7.071c0-3.911,3.803-7.078,8.491-7.078l0.96,0.007
	c2.113,0,4.064,0.529,5.635,1.402l0.01-3.717c-1.71-0.638-3.629-0.995-5.652-0.995H78.12c-6.77,0-12.261,4.654-12.261,10.379
	c0,5.728,5.491,10.374,12.261,10.374l0.957-0.054c2.022,0,3.941-0.353,5.652-0.991l-0.01-3.709
	c-1.571,0.874-3.522,1.395-5.635,1.395L78.123,18.771z"/>
<path fill="#1D1D1B" d="M34.728,18.777c-4.691,0-8.492-3.173-8.492-7.078c0-3.911,3.801-7.076,8.492-7.076
	c4.686,0,8.491,3.165,8.491,7.076C43.219,15.604,39.414,18.777,34.728,18.777 M34.725,1.322c-6.771,0-12.263,4.653-12.263,10.376
	c0,5.737,5.492,10.382,12.263,10.382c6.773,0,12.264-4.645,12.264-10.382C46.988,5.975,41.498,1.322,34.725,1.322"/>
<path fill="#1D1D1B" d="M5.441,21.138v-7.552h7.535l5.664,7.552l4.76-0.005l-5.622-7.529c1.641-0.244,2.695-0.643,3.633-1.539
	c1.013-0.976,1.516-2.26,1.516-3.847c0-1.833-0.62-3.289-1.858-4.356c-1.244-1.066-2.956-1.609-5.133-1.609H1.666v18.886H5.441z
	 M5.445,5.52h9.557c2.782,0,4.168,0.532,4.168,2.582c0,1.896-1.286,2.595-3.862,2.595H5.445V5.52z"/>
<rect x="179.153" y="2.253" fill="#1D1D1B" width="3.777" height="18.885"/>
<rect x="228.223" y="2.244" fill="#1D1D1B" width="3.777" height="18.894"/>
<path fill="#1D1D1B" d="M168.141,35.826c0-0.128-0.056-0.191-0.166-0.191c-0.054,0-0.101,0.019-0.142,0.06
	c-0.043,0.036-0.105,0.071-0.187,0.103c-0.081,0.029-0.129,0.133-0.147,0.313l-0.576,0.374c-0.138,0.042-0.205,0.127-0.205,0.256
	v0.088c0.019,0.053,0.025,0.096,0.025,0.13c0.001,0.035-0.015,0.051-0.05,0.051c-0.034,0-0.054-0.037-0.054-0.116
	c0-0.077-0.024-0.114-0.076-0.114c-0.033,0-0.074,0.022-0.121,0.066c-0.046,0.042-0.131,0.106-0.249,0.189
	c-0.12,0.086-0.222,0.18-0.302,0.277c-0.081,0.1-0.183,0.158-0.301,0.173c-0.119,0.018-0.203,0.067-0.25,0.154
	c-0.047,0.086-0.162,0.148-0.346,0.186c-0.184,0.038-0.326,0.169-0.429,0.391l-0.051,0.027h-0.181c-0.06,0-0.123,0.035-0.192,0.102
	l-0.103,0.092c-0.067,0.035-0.12,0.102-0.154,0.204l-0.127,0.079c-0.094,0-0.224,0.05-0.386,0.154
	c-0.162,0.103-0.272,0.216-0.332,0.343l-0.13-0.05c-0.102,0.034-0.178,0.05-0.229,0.05c-0.163,0.002-0.313,0.047-0.454,0.131
	c-0.142,0.088-0.294,0.128-0.457,0.13l-0.615,0.089c-0.452,0.002-0.68-0.121-0.68-0.371c0-0.015,0.019-0.102,0.052-0.261
	c0.034-0.161,0.06-0.29,0.077-0.392c0.137-0.088,0.268-0.128,0.395-0.128l0.259-0.272l0.127,0.027l0.165-0.156
	c0.137-0.015,0.205-0.077,0.205-0.178c0-0.092,0.032-0.185,0.102-0.27c0.103,0.034,0.162,0.053,0.18,0.053
	c0.11,0,0.324-0.158,0.641-0.477c0.135,0,0.225-0.056,0.267-0.166c0.043-0.114,0.138-0.214,0.282-0.309l0.23,0.025
	c0.163-0.334,0.311-0.5,0.448-0.502c0.034,0,0.057,0.012,0.075,0.033c0.018,0.021,0.042,0.033,0.077,0.031
	c0.051,0,0.118-0.039,0.198-0.121c0.08-0.081,0.159-0.142,0.236-0.18c0.077-0.039,0.187-0.129,0.333-0.276
	c0.161-0.034,0.378-0.188,0.65-0.463c0.273-0.273,0.41-0.543,0.409-0.808c0-0.146-0.077-0.305-0.236-0.475
	c-0.158-0.171-0.332-0.257-0.52-0.257c-0.154,0-0.285-0.024-0.392-0.075c-0.106-0.052-0.176-0.077-0.212-0.077l-0.538,0.027
	c-0.161,0-0.332,0.031-0.506,0.089c-0.176,0.06-0.316,0.091-0.429,0.091l-0.204-0.053c-0.018,0-0.035,0.013-0.052,0.027
	c-0.052,0.07-0.147,0.147-0.294,0.231c-0.571,0.204-0.922,0.373-1.051,0.502l-0.153,0.218c-0.264,0.145-0.406,0.318-0.422,0.511
	c-0.019,0.199-0.127,0.305-0.334,0.324l-0.268,0.218c-0.12,0.239-0.198,0.388-0.229,0.449l-0.295,0.538
	c-0.051,0.146-0.095,0.231-0.129,0.257l-0.111,0.424c-0.019,0.014-0.034,0.022-0.052,0.039c-0.317,0.313-0.546,0.52-0.691,0.614
	s-0.274,0.194-0.39,0.301c-0.115,0.108-0.241,0.188-0.372,0.237c-0.133,0.055-0.269,0.137-0.405,0.251
	c-0.136,0.115-0.278,0.2-0.427,0.25c-0.151,0.052-0.278,0.114-0.386,0.182s-0.23,0.119-0.371,0.154
	c-0.14,0.035-0.247,0.079-0.314,0.133c-0.07,0.057-0.112,0.085-0.127,0.085l-0.181-0.05c-0.111,0.05-0.174,0.075-0.193,0.075
	c-0.332,0.002-0.5-0.063-0.5-0.191c0-0.05,0.033-0.117,0.097-0.204c0.064-0.085,0.114-0.184,0.148-0.29
	c0.032-0.105,0.068-0.177,0.102-0.211l0.103-0.152c0.068-0.147,0.121-0.245,0.157-0.298c0.04-0.05,0.061-0.085,0.061-0.102v-0.231
	c0-0.067,0.084-0.134,0.254-0.19c0.112-0.154,0.201-0.309,0.27-0.462l0.127-0.092c0.453-0.58,0.74-0.903,0.858-0.962
	c0.146-0.229,0.218-0.46,0.218-0.692c0-0.085-0.063-0.311-0.187-0.679c-0.124-0.367-0.22-0.611-0.289-0.729l-0.076-0.194
	c-0.035-0.623-0.309-0.934-0.822-0.934c-0.437,0-0.812,0.158-1.127,0.475c-0.068,0.087-0.134,0.146-0.193,0.182
	c-0.059,0.035-0.099,0.066-0.114,0.102c-0.181,0.222-0.477,0.457-0.896,0.706l-0.077,0.168l-0.192,0.05l-0.152,0.18
	c-0.207,0.069-0.396,0.2-0.571,0.392c-0.175,0.192-0.33,0.315-0.461,0.371c-0.132,0.057-0.217,0.126-0.249,0.215
	c-0.035,0.084-0.12,0.135-0.259,0.152c-0.118,0.015-0.304,0.123-0.542,0.316c-0.045-0.043-0.088-0.072-0.123-0.072
	c-0.143,0-0.284,0.104-0.421,0.314c-0.137,0.209-0.284,0.349-0.44,0.417c-0.157,0.069-0.248,0.161-0.273,0.277
	c-0.027,0.114-0.103,0.171-0.23,0.171l-0.204,0.182c-0.104,0.085-0.192,0.191-0.268,0.32l-0.128,0.053
	c-0.053,0.015-0.14,0.104-0.263,0.262c-0.124,0.158-0.321,0.271-0.595,0.341c-0.06-0.052-0.089-0.158-0.089-0.321l0.051-0.356
	l-0.026-0.32c0-0.069,0.036-0.148,0.111-0.24c0.071-0.088,0.105-0.161,0.105-0.211l-0.001-0.027l0.18-0.522
	c0.021-0.086,0.043-0.163,0.077-0.231c0.495-0.496,0.743-1.023,0.742-1.579c0-0.469-0.185-0.704-0.552-0.702
	c-0.514,0-0.849,0.154-1.007,0.467c-0.157,0.313-0.279,0.467-0.365,0.467c-0.068,0-0.109-0.075-0.129-0.229
	c-0.052-0.733-0.344-1.101-0.872-1.101c-0.052,0-0.097,0.009-0.129,0.025l-0.206,0.102h-0.025c-0.13-0.065-0.21-0.1-0.245-0.1
	h-0.076c-0.42,0.213-0.645,0.321-0.679,0.321h-0.104c-0.111,0-0.264,0.054-0.456,0.165c-0.191,0.112-0.389,0.203-0.591,0.278
	c-0.2,0.071-0.38,0.187-0.537,0.339c-0.159,0.154-0.262,0.241-0.315,0.257c-0.351,0.181-0.676,0.42-0.974,0.717l-0.29,0.29
	c-0.062,0.041-0.125,0.085-0.203,0.143c-0.252,0.184-0.388,0.33-0.41,0.436c-0.003,0.018-0.008,0.03-0.014,0.043
	c-0.029,0.036-0.062,0.072-0.095,0.109c-0.015,0.005-0.032,0.008-0.052,0.008l-0.152-0.025c-0.035,0-0.12,0.06-0.256,0.18
	l-0.052,0.052c-0.214,0.062-0.397,0.21-0.552,0.449c-0.093,0.035-0.156,0.073-0.189,0.115c-0.035,0.043-0.122,0.096-0.264,0.152
	c-0.141,0.063-0.278,0.142-0.409,0.239c-0.133,0.099-0.212,0.146-0.236,0.146h-0.192c-0.249,0.243-0.493,0.397-0.735,0.471
	c-0.244,0.073-0.417,0.188-0.519,0.342c-0.452,0.119-0.696,0.268-0.729,0.447l-0.115,0.026h-0.128
	c-0.118,0.096-0.189,0.142-0.206,0.142c-0.015,0-0.085,0.013-0.204,0.038c-0.118,0.027-0.271,0.052-0.446,0.077l-0.552,0.093h-0.192
	c-0.383,0-0.576-0.133-0.578-0.397l0.102-0.448l-0.026-0.282c0-0.035,0.042-0.087,0.123-0.162c0.082-0.071,0.122-0.135,0.122-0.186
	l-0.001-0.129c-0.019-0.067-0.025-0.11-0.025-0.127c0-0.067,0.056-0.148,0.165-0.237c0.111-0.089,0.206-0.17,0.283-0.236
	l0.331-0.555c0.249-0.314,0.405-0.542,0.474-0.678h0.076c0.076-0.019,0.2-0.073,0.372-0.168c0.065-0.12,0.17-0.214,0.313-0.282
	c0.14-0.066,0.241-0.133,0.301-0.198c0.059-0.066,0.137-0.112,0.235-0.143c0.098-0.028,0.215-0.093,0.353-0.185
	c0.042-0.085,0.076-0.147,0.102-0.18h0.027l0.101,0.025l0.114,0.102h0.026c0.127-0.077,0.312-0.143,0.551-0.193
	c0.178,0.075,0.396,0.142,0.651,0.191c0.104,0.119,0.187,0.182,0.258,0.182c0.196-0.002,0.406-0.093,0.631-0.277
	c0.226-0.186,0.34-0.346,0.34-0.48c-0.001-0.034-0.044-0.19-0.13-0.471c-0.087-0.278-0.173-0.434-0.263-0.473
	c-0.09-0.04-0.178-0.083-0.263-0.135c-0.086-0.053-0.146-0.075-0.18-0.075c-0.093,0-0.19,0.05-0.294,0.152
	c-0.35-0.137-0.542-0.204-0.576-0.204c-0.138,0-0.252,0.036-0.347,0.104c-0.094,0.069-0.145,0.103-0.152,0.103
	c-0.017,0-0.035-0.007-0.053-0.027c-0.051-0.05-0.156-0.075-0.321-0.075c-0.17,0-0.305,0.087-0.408,0.257h-0.192
	c-0.153,0.002-0.397,0.112-0.73,0.333l-0.473,0.3c-0.118,0.143-0.252,0.262-0.396,0.351c-0.146,0.09-0.265,0.204-0.358,0.342
	c-0.129-0.025-0.262,0.055-0.397,0.242c-0.135,0.188-0.221,0.299-0.256,0.332l0.025,0.206c0,0.017-0.007,0.027-0.024,0.027
	c-0.222,0.087-0.419,0.271-0.589,0.552c-0.171,0.281-0.256,0.466-0.256,0.551v0.127c-0.212,0.077-0.355,0.263-0.421,0.56
	c-0.071,0.293-0.136,0.528-0.204,0.704c-0.069,0.175-0.103,0.309-0.103,0.392c0,0.059,0.008,0.1,0.026,0.115l0.103,0.309
	c0.093,0.511,0.277,0.794,0.551,0.844l0.077,0.104c0.086,0.204,0.146,0.318,0.18,0.346l0.551,0.279
	c0.096,0.086,0.192,0.132,0.296,0.132c0.017,0,0.158-0.046,0.424-0.132c0.067,0.034,0.146,0.089,0.229,0.16
	c0.086,0.073,0.228,0.109,0.425,0.109h0.025c0.136-0.079,0.282-0.119,0.439-0.129c0.158-0.009,0.238-0.077,0.238-0.204
	c0-0.13,0.043-0.192,0.127-0.192h0.027c0.144,0.102,0.233,0.152,0.27,0.152c0.033,0,0.1-0.049,0.197-0.148
	c0.1-0.098,0.174-0.164,0.226-0.201c0.205,0,0.344-0.065,0.422-0.203l0.23,0.051c0.104-0.032,0.181-0.089,0.237-0.159
	c0.055-0.072,0.147-0.156,0.276-0.252c0.127-0.092,0.201-0.165,0.224-0.211c0.021-0.048,0.044-0.083,0.07-0.108h0.19l0.257-0.168
	c0.127-0.12,0.219-0.187,0.271-0.207c0.087-0.026,0.215-0.119,0.38-0.266l0.015,0.241v0.077c-0.016,0.034-0.025,0.102-0.025,0.204
	c0,0.216,0.038,0.383,0.116,0.504l0.129,0.521c0.025,0.18,0.192,0.334,0.5,0.461c0.308,0.128,0.577,0.193,0.807,0.193
	c0.283,0,0.767-0.228,1.449-0.683l0.077-0.074c0.196-0.104,0.345-0.189,0.449-0.257l0.974-0.797
	c0.118-0.087,0.218-0.195,0.295-0.328c0.076-0.131,0.122-0.208,0.139-0.224l0.246,0.025l0.128-0.129
	c0.043-0.062,0.117-0.108,0.23-0.148c0.11-0.039,0.175-0.087,0.19-0.146l0.053-0.079c0.103-0.066,0.187-0.146,0.255-0.229
	c0.042-0.162,0.099-0.269,0.167-0.32c0.119,0,0.226-0.044,0.313-0.129c0.091-0.087,0.151-0.128,0.187-0.128
	c0.034,0,0.052,0.025,0.052,0.075l-0.077,0.629c0,0.036,0.01,0.077,0.026,0.128c0.017,0.052,0.027,0.098,0.027,0.14
	c0,0.035-0.011,0.061-0.027,0.079c-0.017,0.017-0.026,0.042-0.026,0.077c0,0.033,0.022,0.077,0.066,0.128
	c0.041,0.052,0.062,0.094,0.062,0.129l-0.049,0.241c0,0.174,0.037,0.307,0.115,0.404c0.075,0.099,0.119,0.178,0.128,0.238
	c0.01,0.061,0.038,0.113,0.091,0.167c0.145,0.017,0.285,0.056,0.423,0.121c0.136,0.063,0.284,0.095,0.448,0.095
	c0.035,0,0.096-0.022,0.186-0.07c0.089-0.048,0.227-0.096,0.41-0.147c0.184-0.055,0.317-0.121,0.403-0.206l0.025-0.128
	c0.119-0.034,0.221-0.073,0.307-0.117c0.138-0.152,0.264-0.239,0.378-0.256c0.115-0.017,0.205-0.094,0.27-0.231
	c0.064-0.136,0.189-0.233,0.378-0.294l0.127-0.182c0.163-0.108,0.264-0.204,0.302-0.281s0.122-0.15,0.25-0.217l0.09-0.169
	l0.019-0.129c0.102-0.027,0.181-0.071,0.23-0.141c0.081-0.109,0.154-0.193,0.226-0.241l0.254-0.067
	c0.146-0.066,0.236-0.102,0.27-0.102c0.104-0.138,0.206-0.259,0.307-0.36c0.13,0,0.228-0.047,0.297-0.14
	c0.066-0.096,0.11-0.146,0.129-0.156c0.264-0.069,0.422-0.111,0.474-0.127c0.051-0.018,0.109-0.105,0.178-0.27l0.219-0.103
	c0.101-0.137,0.224-0.239,0.366-0.301c0.139-0.065,0.233-0.12,0.274-0.162c0.043-0.042,0.156-0.106,0.341-0.193
	c0.182-0.084,0.301-0.173,0.354-0.264c0.049-0.087,0.096-0.135,0.139-0.135c0.222,0,0.333,0.125,0.334,0.374
	c0,0.032-0.034,0.109-0.104,0.229c-0.052,0.018-0.093,0.083-0.127,0.199c-0.034,0.115-0.061,0.181-0.077,0.198l-0.164,0.231
	c-0.053,0.164-0.126,0.298-0.221,0.41c-0.092,0.112-0.263,0.417-0.511,0.91c-0.051,0.224-0.117,0.385-0.198,0.482
	c-0.081,0.097-0.13,0.19-0.148,0.275c-0.015,0.087-0.058,0.217-0.126,0.392c-0.068,0.176-0.103,0.468-0.102,0.878
	c0,0.069,0.047,0.19,0.142,0.365c0.093,0.176,0.171,0.348,0.231,0.517c0.059,0.174,0.241,0.344,0.546,0.514
	c0.302,0.171,0.458,0.256,0.468,0.256l0.371-0.026l0.205-0.063c0.024,0,0.091,0.029,0.193,0.088l0.308-0.165l0.371-0.079
	c0.451-0.316,0.725-0.475,0.818-0.475c0.137,0,0.206-0.06,0.206-0.18v-0.025l-0.078-0.127c0-0.079,0.05-0.115,0.153-0.115
	l0.051-0.002l0.079,0.027c0.016,0,0.08-0.035,0.192-0.103l0.049-0.129c0.018-0.12,0.053-0.18,0.104-0.18
	c0.017,0,0.052,0.018,0.102,0.053c0.054,0.031,0.085,0.05,0.103,0.05c0.035,0,0.102-0.054,0.199-0.16s0.28-0.259,0.545-0.457
	c0.04-0.031,0.078-0.06,0.116-0.089c0.034,0.022,0.064,0.046,0.085,0.075c0.198,0.607,0.314,0.912,0.348,0.912l0.155-0.027
	c0.103,0.384,0.278,0.576,0.526,0.576c0.061,0.025,0.142,0.068,0.244,0.13c0.103,0.06,0.196,0.087,0.281,0.087
	c0.155,0,0.317-0.025,0.488-0.075l0.232-0.077c0.016,0,0.05,0.033,0.102,0.103c0.052,0.066,0.103,0.102,0.153,0.102l0.36-0.054
	c0.023,0,0.08-0.02,0.167-0.063l1.077-0.386c0.178-0.119,0.297-0.19,0.358-0.206c0.06-0.015,0.097-0.034,0.115-0.052
	c0.086-0.077,0.228-0.128,0.43-0.152c0.202-0.028,0.323-0.123,0.363-0.291c0.046-0.166,0.121-0.25,0.232-0.25h0.231l0.076-0.026
	c0.077-0.102,0.244-0.213,0.502-0.333c0.067-0.076,0.111-0.166,0.134-0.27c0.021-0.103,0.073-0.154,0.161-0.154
	c0.033,0,0.05,0.01,0.05,0.026l0.104,0.103c0.033,0,0.079-0.035,0.141-0.103c0.061-0.07,0.134-0.146,0.218-0.231l0.437-0.5
	c0.049-0.077,0.121-0.13,0.211-0.161c0.09-0.03,0.211-0.125,0.365-0.287h0.078c0.066-0.019,0.123-0.117,0.164-0.303
	c0.043-0.183,0.104-0.32,0.187-0.41c0.081-0.092,0.122-0.16,0.122-0.213l-0.065-0.347L168.141,35.826z M161.557,36.193
	c0.166-0.341,0.328-0.555,0.487-0.636c0.156-0.081,0.32-0.188,0.486-0.319c0.166-0.134,0.266-0.209,0.3-0.227l0.154-0.077
	l0.218-0.05c0.155-0.103,0.248-0.157,0.282-0.157h0.296c0.136-0.084,0.238-0.127,0.308-0.127c0.161,0,0.242,0.05,0.242,0.152
	c0,0.052-0.073,0.103-0.224,0.154c-0.151,0.052-0.299,0.193-0.441,0.425l-0.13,0.052c-0.067,0.083-0.172,0.174-0.313,0.263
	c-0.141,0.09-0.22,0.152-0.237,0.185l-0.103,0.102c-0.265,0.173-0.467,0.319-0.608,0.438c-0.14,0.12-0.293,0.218-0.455,0.297
	l-0.437,0.192c-0.05,0-0.076-0.026-0.076-0.077C161.307,36.731,161.391,36.535,161.557,36.193 M146.661,36.262
	c-0.302,0.307-0.534,0.521-0.699,0.64c-0.034,0.104-0.138,0.207-0.314,0.303c-0.174,0.099-0.277,0.24-0.313,0.43
	c-0.129,0.061-0.212,0.121-0.256,0.18c-0.043,0.06-0.157,0.133-0.347,0.218l-0.268,0.207c-0.325,0.179-0.563,0.312-0.705,0.398
	c-0.062,0.092-0.146,0.167-0.257,0.224c-0.111,0.056-0.188,0.106-0.232,0.154c-0.041,0.048-0.084,0.075-0.127,0.085
	c-0.042,0.008-0.08,0.029-0.115,0.063l-0.241,0.129c-0.105,0.036-0.173,0.067-0.208,0.104c-0.033,0.034-0.16,0.097-0.377,0.185
	c-0.218,0.092-0.361,0.136-0.43,0.136c-0.161,0-0.243-0.209-0.243-0.629c0-0.065,0.048-0.16,0.146-0.276
	c0.098-0.112,0.155-0.242,0.173-0.383s0.076-0.231,0.179-0.27c0.103-0.039,0.187-0.088,0.258-0.147l0.087-0.218
	c0-0.026,0.113-0.129,0.335-0.309c0.06-0.231,0.191-0.379,0.396-0.449c0.342-0.238,0.543-0.422,0.603-0.553
	c0.102,0,0.264-0.084,0.487-0.249c0.222-0.168,0.472-0.285,0.749-0.354c0.278-0.068,0.466-0.129,0.564-0.186
	c0.096-0.056,0.215-0.083,0.353-0.083l0.254,0.05l0.169-0.026l0.179,0.089l0.244-0.025l0.229,0.025l0.103-0.064h0.026
	c0.034,0,0.053,0.015,0.053,0.039C147.116,35.766,146.963,35.953,146.661,36.262"/>
<path fill="#1D1D1B" d="M198.034,36.419c-0.171,0-0.322,0.116-0.454,0.342c-0.133,0.228-0.206,0.339-0.225,0.339
	c-0.077,0.018-0.217,0.108-0.423,0.271c-0.315,0.315-0.546,0.521-0.69,0.615c-0.146,0.096-0.274,0.195-0.391,0.302
	c-0.114,0.107-0.24,0.187-0.371,0.236c-0.133,0.052-0.27,0.136-0.404,0.252c-0.137,0.115-0.28,0.2-0.43,0.25
	c-0.149,0.052-0.277,0.113-0.383,0.18c-0.108,0.068-0.232,0.121-0.372,0.156c-0.142,0.034-0.246,0.079-0.315,0.133
	c-0.068,0.056-0.109,0.084-0.127,0.084l-0.18-0.05c-0.112,0.05-0.174,0.075-0.192,0.075c-0.332,0-0.501-0.062-0.501-0.19
	c0-0.052,0.033-0.12,0.096-0.206c0.064-0.083,0.114-0.182,0.149-0.288c0.032-0.105,0.067-0.179,0.1-0.212l0.105-0.152
	c0.067-0.146,0.12-0.244,0.158-0.297c0.039-0.05,0.059-0.085,0.059-0.104v-0.229c-0.001-0.068,0.085-0.134,0.254-0.193
	c0.112-0.152,0.201-0.307,0.271-0.461l0.127-0.092c0.452-0.579,0.737-0.901,0.857-0.961c0.146-0.229,0.219-0.459,0.218-0.692
	c0-0.084-0.063-0.311-0.187-0.68c-0.124-0.365-0.221-0.611-0.288-0.729l-0.079-0.194c-0.032-0.621-0.309-0.932-0.821-0.932
	c-0.436,0-0.811,0.156-1.127,0.475c-0.067,0.086-0.133,0.145-0.191,0.18c-0.06,0.034-0.1,0.068-0.115,0.102
	c-0.18,0.222-0.479,0.459-0.896,0.707l-0.077,0.167l-0.191,0.052l-0.153,0.18c-0.207,0.068-0.396,0.198-0.572,0.391
	c-0.175,0.193-0.328,0.316-0.462,0.372c-0.131,0.057-0.214,0.126-0.248,0.213c-0.035,0.086-0.119,0.136-0.256,0.153
	c-0.076,0.01-0.177,0.056-0.301,0.135L189,35.958l-0.141-0.446c-0.137-0.207-0.24-0.373-0.31-0.504
	c-0.194-0.065-0.295-0.115-0.295-0.152c0-0.016,0.074-0.133,0.22-0.343c0-0.259-0.086-0.434-0.254-0.529
	c-0.167-0.092-0.327-0.167-0.485-0.223c-0.159-0.055-0.249-0.091-0.264-0.108c-0.062-0.034-0.229-0.088-0.502-0.165l-0.372-0.128
	c-0.07,0-0.158,0.032-0.269,0.095c-0.112,0.064-0.221,0.112-0.323,0.142c-0.103,0.031-0.214,0.066-0.332,0.104
	c-0.12,0.037-0.216,0.056-0.283,0.056c-0.224,0-0.576,0.126-1.062,0.367c-0.481,0.244-0.773,0.424-0.872,0.542
	c-0.097,0.115-0.241,0.202-0.434,0.263c-0.194,0.059-0.349,0.136-0.469,0.231c-0.111,0.186-0.246,0.298-0.4,0.333
	c-0.273,0.187-0.448,0.349-0.53,0.482c-0.057,0.088-0.119,0.154-0.192,0.196c-0.116,0.022-0.2,0.054-0.244,0.098
	c-0.063,0.064-0.154,0.118-0.27,0.16c-0.114,0.044-0.221,0.114-0.32,0.213c-0.096,0.098-0.248,0.19-0.453,0.273l-0.475,0.311
	c-0.034,0.06-0.089,0.102-0.166,0.127s-0.115,0.083-0.115,0.168l0.026,0.205l-0.114,0.053h-0.026
	c-0.102-0.071-0.162-0.104-0.179-0.104c-0.035,0-0.081,0.036-0.142,0.109c-0.062,0.071-0.133,0.112-0.218,0.121
	c-0.086,0.008-0.15,0.074-0.191,0.193l-0.053,0.025c-0.101,0.035-0.178,0.089-0.223,0.16c-0.046,0.073-0.097,0.109-0.147,0.109
	c-0.018,0-0.086-0.021-0.207-0.065c-0.084,0.097-0.133,0.143-0.152,0.143c-0.016-0.034-0.024-0.06-0.024-0.075l0.049-0.309
	c0.034-0.251,0.112-0.409,0.232-0.482c0.118-0.072,0.2-0.213,0.241-0.43l0.05-0.258c0.155-0.27,0.232-0.413,0.232-0.421
	l-0.051-0.281c0-0.137,0.084-0.22,0.256-0.247l0.09-0.1c0.017-0.119,0.067-0.261,0.154-0.419c0.083-0.158,0.144-0.334,0.178-0.532
	c0.077-0.066,0.157-0.206,0.243-0.414c0.084-0.213,0.17-0.394,0.255-0.546c0.086-0.156,0.13-0.297,0.13-0.424l-0.001-0.053
	l0.165-0.243c0.172-0.069,0.302-0.24,0.392-0.513c0.088-0.273,0.193-0.47,0.313-0.59c0.314-0.188,0.512-0.42,0.586-0.694
	c0.078-0.273,0.155-0.449,0.232-0.524c0.077-0.079,0.177-0.229,0.303-0.454c0.121-0.228,0.185-0.363,0.185-0.406
	c0-0.017-0.025-0.075-0.078-0.179c0.087-0.053,0.178-0.174,0.275-0.366c0.099-0.193,0.146-0.305,0.146-0.339
	c0-0.018-0.032-0.04-0.102-0.071c-0.069-0.027-0.103-0.07-0.103-0.122c0-0.051,0.071-0.101,0.218-0.154
	c0.146-0.051,0.233-0.155,0.264-0.313c0.027-0.159,0.076-0.421,0.146-0.788c0.067-0.367,0.102-0.586,0.102-0.655l-0.027-0.371
	c0-0.136-0.008-0.245-0.025-0.328c-0.02-0.08-0.039-0.233-0.071-0.46c-0.03-0.226-0.114-0.427-0.259-0.602
	c-0.139-0.176-0.239-0.264-0.3-0.264c-0.179,0-0.356,0.072-0.533,0.212c-0.174,0.142-0.277,0.283-0.313,0.422
	c-0.034,0.142-0.103,0.278-0.205,0.405c-0.102,0.13-0.204,0.362-0.307,0.705c-0.101,0.341-0.201,0.53-0.294,0.565
	c-0.015,0.222-0.034,0.354-0.051,0.397l-0.192,0.154l-0.129,0.422c-0.161,0.266-0.411,0.913-0.754,1.949
	c-0.016,0.103-0.077,0.265-0.185,0.481c-0.104,0.219-0.222,0.569-0.344,1.053c-0.124,0.482-0.271,0.801-0.441,0.953
	c0,0.189-0.186,0.576-0.55,1.155c-0.197,0.181-0.487,0.463-0.872,0.848l-0.706,0.795c-0.282,0.325-0.446,0.49-0.499,0.49
	c-0.87,0.717-1.307,1.166-1.307,1.347l-0.114,0.795c0,0.077,0.089,0.172,0.271,0.281c0.254-0.077,0.439-0.22,0.551-0.424
	c0.246-0.052,0.404-0.166,0.473-0.348c0.137-0.315,0.312-0.474,0.527-0.474c0.203-0.299,0.361-0.444,0.472-0.438l0.001,0.102
	c0,0.121-0.052,0.242-0.158,0.369c-0.108,0.123-0.178,0.234-0.213,0.338l-0.102,0.294c-0.087,0.129-0.126,0.297-0.126,0.501
	c0,0.07-0.031,0.129-0.092,0.179c-0.256,0.267-0.384,0.518-0.383,0.759c-0.565,0.248-0.847,0.415-0.847,0.499
	c0.001,0.087,0.09,0.177,0.263,0.276c0.177,0.098,0.264,0.173,0.264,0.224c0,0.077-0.062,0.167-0.187,0.27
	c-0.123,0.102-0.202,0.239-0.236,0.41l-0.307,0.77c-0.213,0.291-0.423,0.833-0.625,1.628c0,0.054-0.041,0.114-0.123,0.181
	c-0.079,0.067-0.121,0.119-0.121,0.154l-0.078,0.32l-0.127,0.281l-0.318,1.027c-0.102,0.085-0.166,0.197-0.185,0.334
	c-0.021,0.137-0.06,0.311-0.109,0.524c-0.051,0.215-0.102,0.386-0.154,0.514c-0.06-0.011-0.136,0.192-0.229,0.603l-0.025,0.129
	c-0.087,0.195-0.16,0.395-0.225,0.595c-0.064,0.202-0.112,0.322-0.147,0.366c-0.034,0.042-0.059,0.099-0.077,0.167l-0.077,0.269
	c-0.067,0.138-0.103,0.257-0.102,0.359v0.117c0.019,0.178,0.034,0.314,0.053,0.41c0.103,0.103,0.155,0.189,0.155,0.267
	c0,0.309,0.089,0.532,0.269,0.675c0.181,0.141,0.273,0.212,0.283,0.212c0.068-0.001,0.191-0.104,0.369-0.31
	c0.121-0.087,0.26-0.147,0.424-0.18c0.239-0.3,0.416-0.449,0.525-0.449l0.051-0.053c0.07-0.11,0.137-0.196,0.205-0.256
	c0.068-0.059,0.115-0.126,0.141-0.192c0.025-0.068,0.056-0.101,0.089-0.101h0.04c0.051,0.05,0.085,0.077,0.104,0.077
	c0.238-0.199,0.396-0.374,0.473-0.528l0.204-0.128c0.052-0.079,0.136-0.16,0.252-0.25c0.114-0.092,0.231-0.237,0.352-0.444
	l0.104-0.026c0.065-0.172,0.139-0.265,0.216-0.282l0.077-0.05c0.103-0.129,0.203-0.228,0.303-0.296
	c0.096-0.068,0.162-0.184,0.197-0.346c0.136-0.067,0.271-0.186,0.403-0.353c0.132-0.169,0.234-0.273,0.314-0.328
	c0.075-0.052,0.114-0.12,0.114-0.204l-0.024-0.348l0.024-0.05c0.109-0.035,0.294-0.184,0.55-0.449
	c0.12-0.344,0.234-0.544,0.347-0.604l0.051-0.154l-0.001-0.32c0.018-0.052,0.076-0.087,0.174-0.102
	c0.1-0.019,0.147-0.07,0.147-0.154v-0.05c-0.028-0.165-0.04-0.263-0.04-0.298c0-0.05,0.057-0.136,0.174-0.251
	c0.115-0.113,0.173-0.364,0.172-0.75c0-0.519-0.207-1.065-0.616-1.633c-0.411-0.566-0.652-0.825-0.721-0.775
	c-0.076-0.102-0.115-0.169-0.115-0.204c0-0.077,0.051-0.158,0.146-0.244c0.1-0.083,0.183-0.128,0.251-0.128h0.077l0.167-0.153
	c0.104-0.035,0.184-0.094,0.242-0.175c0.06-0.081,0.126-0.139,0.2-0.174c0.071-0.032,0.185-0.111,0.337-0.23
	c0.154-0.117,0.295-0.201,0.425-0.243c0.103-0.154,0.153-0.239,0.153-0.256l0.243,0.024c0.033-0.018,0.076-0.052,0.127-0.102
	c0.354-0.292,0.649-0.529,0.891-0.715c0.033,0.013,0.072,0.021,0.121,0.021c0.146,0,0.25-0.079,0.309-0.237
	c0.02-0.051,0.035-0.092,0.05-0.127c0.07-0.045,0.129-0.08,0.175-0.101l0.046,0.015c0.041,0,0.072-0.021,0.1-0.052h0.037
	c0.102-0.085,0.189-0.18,0.256-0.283c0.018,0,0.072,0.012,0.167,0.026c0.041-0.068,0.075-0.119,0.104-0.156
	c0.021,0.029,0.028,0.059,0.021,0.079l-0.307,1.028v0.408c-0.051,0.112-0.095,0.184-0.129,0.219l0.024,0.283l-0.024,0.24
	l0.001,0.053c0,0.154,0.067,0.368,0.205,0.64c0.137,0.275,0.279,0.463,0.425,0.565l0.18,0.154c0.051,0.077,0.117,0.135,0.199,0.177
	c0.08,0.043,0.169,0.12,0.261,0.231c0.098,0.112,0.188,0.173,0.278,0.182c0.09,0.008,0.173,0.046,0.251,0.12
	c0.076,0.073,0.148,0.109,0.219,0.107c0.031,0,0.105-0.025,0.218-0.077l0.204,0.024c0.264,0,0.433-0.029,0.499-0.096
	c0.069-0.063,0.156-0.099,0.264-0.11c0.108-0.005,0.226-0.046,0.358-0.113c0.135-0.069,0.247-0.116,0.34-0.143
	c0.097-0.025,0.248-0.12,0.462-0.282l0.128,0.025c0.054,0,0.139-0.077,0.264-0.229c0.125-0.156,0.229-0.233,0.315-0.233
	c0.033,0,0.066,0.018,0.103,0.052l0.602-0.525c0.068-0.035,0.115-0.075,0.146-0.121c0.031-0.049,0.08-0.094,0.147-0.134
	c0.07-0.046,0.113-0.114,0.129-0.208c0.018-0.094,0.061-0.174,0.128-0.243c0.068-0.067,0.13-0.164,0.185-0.289
	c0.057-0.123,0.093-0.199,0.11-0.225l0.077-0.102c0.016-0.052,0.054-0.095,0.115-0.129c0.059-0.034,0.102-0.105,0.127-0.218
	l0.102-0.358l-0.007-0.051c0.069-0.093,0.136-0.164,0.196-0.208l0.254-0.065c0.146-0.067,0.236-0.102,0.27-0.102
	c0.104-0.138,0.205-0.257,0.308-0.361c0.129,0,0.228-0.047,0.296-0.141c0.066-0.095,0.11-0.145,0.129-0.154
	c0.264-0.067,0.422-0.112,0.473-0.127c0.051-0.02,0.11-0.106,0.18-0.27l0.217-0.104c0.104-0.138,0.224-0.237,0.367-0.302
	c0.139-0.063,0.231-0.117,0.274-0.161c0.043-0.041,0.156-0.106,0.34-0.191c0.184-0.087,0.301-0.173,0.353-0.265
	c0.051-0.088,0.098-0.134,0.14-0.134c0.223,0,0.335,0.125,0.335,0.374c0,0.03-0.034,0.109-0.103,0.229
	c-0.049,0.018-0.096,0.084-0.127,0.199c-0.035,0.116-0.063,0.181-0.077,0.199l-0.167,0.231c-0.051,0.163-0.125,0.298-0.217,0.41
	c-0.094,0.111-0.265,0.414-0.513,0.91c-0.05,0.222-0.116,0.381-0.198,0.481c-0.081,0.097-0.133,0.189-0.147,0.276
	c-0.015,0.084-0.06,0.214-0.127,0.391c-0.068,0.175-0.103,0.467-0.103,0.878c0,0.067,0.048,0.191,0.142,0.364
	c0.095,0.178,0.171,0.349,0.232,0.519c0.06,0.172,0.241,0.343,0.544,0.514c0.304,0.171,0.46,0.254,0.47,0.254l0.369-0.024
	l0.207-0.064c0.024,0,0.091,0.029,0.193,0.089l0.306-0.166l0.372-0.077c0.453-0.317,0.725-0.476,0.819-0.476
	c0.138,0,0.206-0.061,0.206-0.18v-0.027l-0.077-0.127c0-0.077,0.052-0.114,0.153-0.114h0.052l0.077,0.023
	c0.016,0,0.08-0.032,0.192-0.103l0.05-0.127c0.015-0.119,0.05-0.18,0.104-0.18c0.016,0,0.05,0.019,0.101,0.053
	c0.054,0.03,0.087,0.05,0.103,0.05c0.035,0,0.101-0.055,0.2-0.161c0.096-0.106,0.278-0.259,0.543-0.456
	c0.266-0.196,0.47-0.365,0.615-0.513c0.146-0.145,0.257-0.231,0.339-0.257c0.083-0.027,0.146-0.132,0.2-0.321
	c0.134-0.033,0.218-0.104,0.243-0.21c0.023-0.108,0.069-0.195,0.134-0.265c0.063-0.067,0.096-0.119,0.096-0.154
	c0-0.051-0.01-0.091-0.025-0.115l-0.026-0.204v-0.077c0.085-0.086,0.129-0.176,0.129-0.269
	C198.306,36.504,198.214,36.419,198.034,36.419 M177.809,42.509c0.001,0.154-0.033,0.275-0.102,0.364
	c-0.069,0.09-0.114,0.206-0.14,0.347c-0.025,0.142-0.062,0.267-0.104,0.381c-0.041,0.108-0.09,0.256-0.141,0.438
	c-0.049,0.186-0.177,0.415-0.379,0.689c-0.199,0.273-0.299,0.444-0.299,0.513v0.052l0.051,0.152l-0.026,0.09
	c-0.077,0.067-0.136,0.152-0.179,0.255c-0.041,0.104-0.141,0.245-0.295,0.427c-0.034,0.161-0.087,0.273-0.159,0.332
	c-0.071,0.061-0.134,0.146-0.186,0.258c-0.052,0.109-0.127,0.206-0.225,0.287s-0.18,0.26-0.249,0.532l-0.053,0.027h-0.178
	c-0.033,0.042-0.064,0.103-0.091,0.182c-0.025,0.075-0.055,0.121-0.089,0.138L174.878,48c-0.067,0.067-0.129,0.11-0.179,0.127
	c-0.051,0.018-0.099,0.067-0.141,0.148s-0.11,0.129-0.206,0.147l-0.025,0.052c-0.06,0.169-0.129,0.262-0.211,0.275
	c-0.079,0.013-0.14,0.036-0.172,0.071c-0.078,0.188-0.141,0.281-0.193,0.281c-0.034,0-0.059-0.017-0.075-0.052
	c0.074-0.265,0.139-0.476,0.189-0.634c0.051-0.159,0.104-0.357,0.153-0.597c0.069-0.069,0.125-0.219,0.168-0.454
	c0.041-0.238,0.102-0.433,0.179-0.591s0.171-0.376,0.287-0.656c0.114-0.275,0.182-0.479,0.195-0.606l0.078-0.09
	c0.111-0.077,0.197-0.257,0.257-0.539s0.09-0.48,0.09-0.59l-0.025-0.282c0-0.034,0.007-0.066,0.024-0.102h0.129
	c0.145,0,0.237-0.093,0.281-0.27c0.043-0.18,0.134-0.419,0.273-0.714c0.143-0.295,0.213-0.458,0.213-0.491l-0.054-0.553
	c0.224-0.121,0.335-0.217,0.335-0.296l-0.026-0.281v-0.051c0-0.131,0.045-0.21,0.134-0.245c0.092-0.034,0.144-0.059,0.16-0.075
	l0.104-0.052c0.068,0,0.177,0.056,0.327,0.172c0.149,0.113,0.233,0.216,0.251,0.301s0.034,0.137,0.051,0.154
	C177.688,41.91,177.809,42.244,177.809,42.509 M187.246,36.385c0.185,0.103,0.275,0.242,0.275,0.422c0,0.118-0.024,0.285-0.077,0.5
	l-0.241,0.463c0,0.092-0.017,0.158-0.051,0.188l-0.103,0.156c-0.034,0.122-0.098,0.216-0.191,0.289
	c-0.093,0.071-0.178,0.178-0.249,0.32c-0.073,0.141-0.196,0.255-0.371,0.339c-0.174,0.089-0.262,0.229-0.262,0.425l-0.051,0.025
	h-0.18c-0.017,0-0.058,0.064-0.12,0.191c-0.064,0.128-0.144,0.193-0.236,0.193c-0.094,0-0.22,0.067-0.378,0.199
	c-0.158,0.133-0.369,0.198-0.632,0.2c-0.085,0-0.215-0.018-0.384-0.053l-0.064-0.024h-0.205l-0.026-0.025l-0.052-0.294l-0.128-0.409
	l0.051-0.475l0.051-0.165c0-0.037-0.031-0.088-0.089-0.154c-0.061-0.07-0.092-0.114-0.092-0.13c0-0.085,0.046-0.156,0.135-0.212
	c0.091-0.057,0.148-0.11,0.172-0.16c0-0.111,0.048-0.277,0.143-0.499l0.23-0.579c0.133-0.137,0.245-0.259,0.332-0.36l0.14-0.164
	c0.18-0.146,0.264-0.287,0.255-0.427l0.154-0.151c0.144,0,0.262-0.057,0.358-0.168c0.092-0.112,0.149-0.168,0.165-0.168h0.166
	c0.051-0.04,0.103-0.113,0.152-0.218c0.052-0.102,0.103-0.152,0.153-0.152c0.02,0,0.115,0.04,0.296,0.128
	c0.544-0.197,0.848-0.354,0.907-0.478c0.17-0.064,0.27-0.102,0.295-0.102c0.05,0,0.077,0.024,0.077,0.077
	c0,0.035-0.102,0.135-0.302,0.302c-0.199,0.167-0.301,0.349-0.3,0.543C186.971,36.08,187.063,36.282,187.246,36.385"/>
<path fill="#1D1D1B" d="M219.581,31.061c0.015,0.129,0.117,0.274,0.302,0.442c0.184,0.166,0.334,0.248,0.454,0.248
	c0.181,0,0.349-0.062,0.505-0.185c0.158-0.127,0.243-0.271,0.25-0.438c0.009-0.168,0.027-0.279,0.053-0.34
	c0.025-0.06,0.038-0.096,0.038-0.116c-0.001-0.179-0.085-0.386-0.252-0.62c-0.166-0.233-0.326-0.368-0.48-0.403
	c-0.298,0.102-0.479,0.16-0.539,0.166c-0.275,0.042-0.409,0.266-0.409,0.667v0.079L219.581,31.061z"/>
<path fill="#1D1D1B" d="M232.05,36.986v-0.079c0.086-0.085,0.129-0.174,0.129-0.268c-0.001-0.172-0.091-0.257-0.271-0.257
	c-0.17,0-0.322,0.113-0.455,0.34c-0.132,0.228-0.207,0.341-0.224,0.341c-0.078,0.016-0.218,0.107-0.422,0.271
	c-0.315,0.314-0.546,0.521-0.692,0.614c-0.145,0.095-0.273,0.194-0.389,0.303c-0.117,0.106-0.241,0.186-0.373,0.237
	c-0.132,0.053-0.268,0.136-0.403,0.249c-0.138,0.116-0.281,0.2-0.431,0.25c-0.148,0.052-0.276,0.114-0.384,0.182
	s-0.23,0.12-0.373,0.154c-0.14,0.035-0.243,0.079-0.313,0.135c-0.067,0.055-0.11,0.083-0.129,0.083l-0.177-0.048
	c-0.112,0.048-0.177,0.073-0.193,0.073c-0.334,0.002-0.501-0.063-0.501-0.191c0-0.05,0.03-0.117,0.096-0.204
	c0.064-0.085,0.113-0.182,0.147-0.29c0.034-0.104,0.069-0.177,0.102-0.211l0.103-0.152c0.068-0.146,0.122-0.245,0.16-0.298
	c0.039-0.05,0.059-0.084,0.059-0.102v-0.229c0-0.069,0.085-0.134,0.256-0.192c0.11-0.154,0.2-0.309,0.268-0.461l0.129-0.093
	c0.452-0.58,0.738-0.903,0.857-0.96c0.145-0.231,0.217-0.461,0.217-0.694c0-0.083-0.062-0.311-0.186-0.679
	c-0.124-0.367-0.222-0.611-0.29-0.73l-0.077-0.193c-0.034-0.623-0.309-0.933-0.821-0.932c-0.437,0-0.813,0.156-1.127,0.475
	c-0.068,0.085-0.134,0.145-0.192,0.18c-0.059,0.033-0.1,0.066-0.115,0.102c-0.182,0.222-0.479,0.457-0.897,0.706l-0.075,0.168
	l-0.192,0.05l-0.155,0.18c-0.205,0.068-0.395,0.2-0.569,0.392c-0.176,0.192-0.328,0.315-0.462,0.371
	c-0.131,0.057-0.215,0.128-0.25,0.213c-0.033,0.087-0.117,0.137-0.257,0.154c-0.135,0.017-0.353,0.148-0.646,0.398
	c-0.06,0.05-0.108,0.106-0.154,0.162c-0.016-0.002-0.026-0.008-0.044-0.008c-0.12,0-0.294,0.116-0.524,0.348l-1.677,1.282
	c-0.256,0.104-0.437,0.188-0.544,0.25c-0.106,0.066-0.188,0.106-0.249,0.123l-0.281,0.282l-0.205-0.025
	c-0.179,0-0.295,0.027-0.345,0.077c-0.034-0.017-0.061-0.034-0.078-0.05c0.119-0.06,0.179-0.137,0.179-0.229l-0.001-0.528
	c0-0.052,0.009-0.077,0.027-0.077c0.093-0.085,0.14-0.15,0.14-0.191l-0.078-0.309c0-0.05,0.063-0.119,0.18-0.204l0.053-0.27
	c0.18-0.035,0.341-0.418,0.484-1.154l0.218-1.001c-0.001-0.231-0.135-0.471-0.406-0.724c-0.269-0.25-0.527-0.377-0.773-0.377
	c-0.173,0-0.312,0.054-0.418,0.159c-0.108,0.107-0.229,0.197-0.367,0.264l-0.167,0.077c-0.093,0.138-0.216,0.255-0.371,0.353
	c-0.152,0.1-0.256,0.2-0.307,0.302c-0.051-0.016-0.119-0.024-0.205-0.024c-0.088,0-0.2,0.07-0.341,0.211
	c-0.142,0.144-0.242,0.227-0.309,0.249c-0.063,0.027-0.11,0.058-0.146,0.093l-0.207,0.154c-0.127,0.042-0.277,0.193-0.449,0.447
	l-0.126,0.053c-0.121,0.127-0.211,0.192-0.271,0.192h-0.051c-0.036-0.029-0.071-0.049-0.103-0.049c-0.143,0-0.285,0.103-0.421,0.313
	c-0.136,0.209-0.284,0.349-0.441,0.415c-0.156,0.071-0.248,0.163-0.275,0.277c-0.023,0.115-0.1,0.174-0.229,0.174l-0.203,0.179
	c-0.104,0.085-0.192,0.193-0.268,0.323l-0.128,0.052c-0.053,0.015-0.139,0.104-0.262,0.262c-0.124,0.158-0.322,0.272-0.595,0.341
	c-0.061-0.052-0.091-0.158-0.091-0.321l0.052-0.358l-0.025-0.32c0-0.067,0.035-0.146,0.107-0.237
	c0.074-0.091,0.109-0.162,0.109-0.212v-0.027l0.18-0.522c0.016-0.087,0.04-0.164,0.076-0.233c0.494-0.496,0.741-1.021,0.74-1.578
	c-0.001-0.47-0.186-0.703-0.55-0.701c-0.515,0-0.851,0.154-1.009,0.467c-0.158,0.312-0.279,0.466-0.364,0.466
	c-0.068,0-0.111-0.077-0.128-0.229c-0.054-0.731-0.344-1.103-0.875-1.101c-0.05,0-0.093,0.008-0.128,0.025l-0.206,0.102h-0.023
	c-0.131-0.064-0.212-0.102-0.245-0.102h-0.077c-0.419,0.214-0.645,0.322-0.68,0.322l-0.104,0.002c-0.109,0-0.262,0.055-0.454,0.165
	c-0.191,0.11-0.388,0.203-0.59,0.278c-0.201,0.071-0.38,0.185-0.538,0.337c-0.159,0.156-0.265,0.241-0.315,0.259
	c-0.351,0.179-0.675,0.421-0.975,0.717l-0.384,0.386c-0.215,0.147-0.361,0.279-0.437,0.399c-0.077,0.12-0.181,0.237-0.309,0.351
	c-0.128,0.118-0.185,0.226-0.179,0.328l-0.129,0.168c-0.051,0.034-0.149,0.17-0.299,0.403c-0.15,0.235-0.224,0.37-0.224,0.404
	l0.026,0.348c-0.162,0-0.244,0.05-0.244,0.154l0.025,0.422v0.077c-0.018,0.033-0.025,0.102-0.025,0.204
	c0.001,0.217,0.039,0.382,0.116,0.502l0.13,0.523c0.023,0.18,0.191,0.334,0.499,0.461c0.307,0.128,0.577,0.193,0.808,0.193
	c0.283,0,0.766-0.229,1.449-0.683l0.076-0.077c0.196-0.104,0.348-0.187,0.447-0.257l0.975-0.796c0.119-0.087,0.22-0.194,0.294-0.328
	c0.077-0.131,0.124-0.206,0.142-0.222l0.243,0.025l0.129-0.131c0.044-0.059,0.119-0.108,0.231-0.148
	c0.111-0.037,0.173-0.085,0.191-0.147l0.052-0.077c0.103-0.067,0.187-0.143,0.255-0.231c0.043-0.161,0.099-0.268,0.167-0.319
	c0.119,0,0.224-0.042,0.314-0.127c0.09-0.088,0.151-0.128,0.186-0.128s0.053,0.025,0.053,0.075l-0.078,0.627
	c0,0.036,0.008,0.077,0.026,0.129c0.016,0.051,0.026,0.099,0.026,0.141c0,0.035-0.011,0.061-0.026,0.077
	c-0.018,0.018-0.025,0.045-0.025,0.079c0,0.033,0.022,0.075,0.063,0.128c0.043,0.052,0.064,0.094,0.064,0.129l-0.05,0.241
	c0.001,0.172,0.037,0.307,0.113,0.407c0.079,0.096,0.121,0.175,0.129,0.233c0.009,0.061,0.039,0.115,0.092,0.167
	c0.146,0.017,0.286,0.059,0.423,0.123c0.136,0.063,0.285,0.096,0.449,0.094c0.034,0,0.095-0.023,0.186-0.07
	c0.089-0.046,0.226-0.097,0.409-0.148c0.183-0.052,0.317-0.119,0.403-0.204l0.024-0.13c0.121-0.032,0.222-0.07,0.31-0.115
	c0.136-0.154,0.262-0.239,0.377-0.256s0.204-0.096,0.269-0.233c0.063-0.134,0.188-0.233,0.378-0.294l0.127-0.179
	c0.164-0.112,0.263-0.205,0.302-0.284c0.038-0.077,0.121-0.147,0.249-0.215l0.091-0.168l0.039-0.28
	c0.041,0.014,0.086,0.023,0.14,0.023c0.041,0,0.13-0.048,0.257-0.148c0.127-0.098,0.214-0.208,0.254-0.327
	c0.042-0.118,0.112-0.195,0.208-0.231l0.279-0.077c0.154-0.043,0.278-0.134,0.372-0.269c0.019-0.188,0.067-0.283,0.154-0.283h0.052
	l0.166,0.077l0.103-0.025c0.067-0.111,0.141-0.176,0.217-0.192c0.078-0.016,0.115-0.043,0.115-0.077
	c0.077-0.087,0.123-0.127,0.143-0.127l0.229,0.075c0.18-0.136,0.285-0.207,0.321-0.207c0.104,0,0.153,0.053,0.153,0.154
	c0,0.025-0.038,0.103-0.114,0.231c-0.077,0.127-0.122,0.249-0.134,0.366c-0.014,0.114-0.055,0.206-0.121,0.276l-0.129,0.177
	l-0.05,0.231c-0.052,0.163-0.087,0.277-0.104,0.349c-0.05,0.031-0.093,0.103-0.127,0.204l-0.063,0.321
	c-0.017,0.068-0.036,0.156-0.052,0.262c-0.017,0.105-0.043,0.19-0.077,0.251c-0.034,0.059-0.049,0.204-0.049,0.434l0.024,0.079
	l-0.024,0.18c0,0.015,0.025,0.094,0.075,0.237c0.053,0.14,0.078,0.228,0.078,0.262l-0.025,0.179l0.001,0.079
	c0,0.195,0.104,0.38,0.314,0.556s0.388,0.262,0.533,0.262l0.254-0.077l0.193,0.025c0.051,0,0.12-0.046,0.204-0.133
	c0.087-0.091,0.187-0.141,0.302-0.148c0.115-0.01,0.198-0.03,0.251-0.065l0.229-0.129c0.112-0.086,0.238-0.154,0.377-0.211
	c0.143-0.056,0.221-0.092,0.238-0.108l0.077-0.129l0.55-0.398c0.103-0.067,0.233-0.182,0.392-0.34
	c0.155-0.16,0.351-0.314,0.576-0.47c0.227-0.153,0.365-0.271,0.414-0.352c0.054-0.081,0.12-0.156,0.199-0.226
	c0.082-0.069,0.151-0.189,0.214-0.366c0.002-0.006,0.003-0.012,0.006-0.018c0.018,0.006,0.035,0.012,0.055,0.012
	c0.224,0,0.375-0.056,0.456-0.168c0.082-0.112,0.154-0.191,0.227-0.243l0.254-0.065c0.146-0.066,0.237-0.102,0.271-0.102
	c0.103-0.138,0.204-0.257,0.307-0.361c0.128,0,0.226-0.044,0.295-0.139c0.068-0.097,0.111-0.146,0.128-0.155
	c0.265-0.068,0.422-0.112,0.474-0.127c0.053-0.021,0.111-0.106,0.18-0.271l0.218-0.103c0.103-0.137,0.224-0.237,0.367-0.303
	c0.14-0.063,0.231-0.118,0.274-0.16s0.154-0.106,0.34-0.19c0.183-0.087,0.301-0.176,0.352-0.267c0.05-0.087,0.098-0.135,0.14-0.135
	c0.223,0,0.335,0.127,0.335,0.375c0.001,0.031-0.033,0.108-0.103,0.229c-0.052,0.018-0.095,0.085-0.13,0.199
	c-0.033,0.115-0.057,0.181-0.074,0.198l-0.166,0.231c-0.052,0.164-0.123,0.298-0.219,0.41c-0.092,0.112-0.264,0.417-0.514,0.911
	c-0.049,0.221-0.115,0.383-0.195,0.481c-0.082,0.096-0.131,0.19-0.147,0.275c-0.017,0.087-0.06,0.217-0.127,0.394
	c-0.069,0.174-0.103,0.467-0.102,0.876c0,0.068,0.047,0.19,0.14,0.365c0.094,0.177,0.17,0.348,0.233,0.517
	c0.06,0.173,0.24,0.344,0.543,0.514c0.305,0.172,0.461,0.256,0.47,0.256l0.371-0.026l0.205-0.062c0.026,0,0.09,0.027,0.192,0.086
	l0.308-0.165l0.37-0.077c0.454-0.318,0.727-0.477,0.82-0.477c0.137,0,0.207-0.06,0.207-0.18v-0.025l-0.077-0.127
	c0-0.077,0.05-0.115,0.152-0.115h0.052l0.075,0.025c0.019,0,0.083-0.035,0.193-0.103l0.051-0.129c0.017-0.12,0.05-0.18,0.104-0.18
	c0.016,0,0.049,0.018,0.102,0.053c0.051,0.032,0.085,0.05,0.103,0.05c0.033,0,0.102-0.055,0.197-0.16
	c0.1-0.106,0.279-0.261,0.546-0.455c0.265-0.198,0.47-0.368,0.616-0.513c0.144-0.146,0.257-0.233,0.34-0.259
	c0.079-0.024,0.144-0.131,0.196-0.322c0.136-0.032,0.217-0.103,0.244-0.209c0.025-0.106,0.069-0.196,0.134-0.263
	c0.063-0.069,0.096-0.121,0.096-0.156c-0.001-0.051-0.009-0.09-0.027-0.116L232.05,36.986z M210.112,36.189
	c-0.304,0.307-0.536,0.521-0.696,0.641c-0.037,0.102-0.142,0.204-0.316,0.303c-0.174,0.099-0.279,0.241-0.312,0.43
	c-0.129,0.061-0.214,0.119-0.256,0.18c-0.044,0.061-0.159,0.133-0.348,0.218l-0.27,0.206c-0.322,0.18-0.559,0.311-0.704,0.397
	c-0.06,0.095-0.146,0.169-0.255,0.226c-0.112,0.056-0.189,0.106-0.232,0.152c-0.042,0.05-0.084,0.077-0.127,0.085
	c-0.044,0.009-0.08,0.031-0.115,0.063l-0.243,0.127c-0.104,0.037-0.172,0.07-0.205,0.106c-0.033,0.033-0.161,0.095-0.379,0.183
	c-0.217,0.092-0.361,0.138-0.429,0.138c-0.162,0-0.245-0.208-0.246-0.629c0-0.067,0.051-0.159,0.149-0.275
	c0.097-0.115,0.155-0.244,0.173-0.384c0.014-0.142,0.076-0.231,0.178-0.271c0.104-0.038,0.188-0.088,0.256-0.146l0.09-0.218
	c0-0.026,0.111-0.129,0.333-0.308c0.06-0.233,0.191-0.382,0.398-0.45c0.341-0.24,0.54-0.424,0.602-0.553
	c0.103,0,0.264-0.083,0.487-0.251c0.222-0.168,0.471-0.283,0.748-0.354c0.28-0.067,0.466-0.131,0.565-0.187
	c0.097-0.054,0.215-0.081,0.353-0.083l0.254,0.053l0.168-0.027l0.18,0.088l0.243-0.027l0.232,0.025l0.103-0.061h0.024
	c0.034,0,0.051,0.013,0.051,0.035C210.566,35.694,210.415,35.881,210.112,36.189"/>
</svg>
