<svg width="27" height="25" viewBox="0 0 27 25" fill="none" xmlns="http://www.w3.org/2000/svg">
<path fill-rule="evenodd" clip-rule="evenodd" d="M25.5701 14.5483C25.6921 13.8831 25.756 13.1987 25.756 12.4997C25.756 6.06625 20.3665 0.850836 13.719 0.850836C12.9805 0.850836 12.2579 0.915471 11.5566 1.03874C10.4736 0.380946 9.19246 0 7.81946 0C3.93155 0 0.779785 3.05014 0.779785 6.81241C0.779785 8.15058 1.17874 9.39838 1.86761 10.4514C1.74556 11.1166 1.68172 11.801 1.68172 12.5C1.68172 18.9335 7.07089 24.1489 13.719 24.1489C14.4572 24.1489 15.1798 24.0842 15.881 23.961C16.9641 24.6191 18.2452 25 19.6182 25C23.5059 25 26.6579 21.9496 26.6579 18.1873C26.6579 16.8486 26.2587 15.601 25.5701 14.5483ZM19.0124 19.1271C16.4721 21.2066 10.2726 20.9494 8.11586 18.5211C7.40483 17.7206 6.77153 15.2759 8.49148 15.0059C10.3488 14.7145 10.845 16.9618 12.3744 17.6119C14.1522 18.3675 17.1364 17.7535 17.0085 15.7938C16.9053 14.214 13.745 13.8599 12.3117 13.4907C9.97914 12.8898 7.51566 12.1428 7.23905 9.55139C6.89092 6.28932 9.48828 4.4804 12.4367 4.21815C15.3958 3.95474 18.4095 4.81502 19.7013 6.33937C20.0553 6.75721 20.4513 7.61062 20.2022 8.27871C19.8653 9.18245 18.6649 9.68809 17.572 9.18789C17.0732 8.95966 16.0847 7.79109 15.4428 7.49079C13.9563 6.79525 10.767 6.96599 10.9963 8.88473C11.1568 10.2269 14.1253 10.5827 15.3175 10.8847C17.3093 11.3898 19.6667 12.0227 20.4528 13.8545C21.4094 16.0827 20.139 18.205 19.0124 19.1271Z" fill="#3AA8CD"/>
</svg>
