<svg width="20" height="21" viewBox="0 0 20 21" fill="none" xmlns="http://www.w3.org/2000/svg">
<path d="M0.763668 10.6224C0.347937 10.6224 0.0109863 10.2838 0.0109863 9.86615C0.0109863 4.85918 4.06518 0.785889 9.04844 0.785889C9.46417 0.785889 9.80112 1.12443 9.80112 1.54212C9.80112 1.9598 9.46417 2.29834 9.04844 2.29834C4.89514 2.29834 1.51635 5.69329 1.51635 9.86615C1.51635 10.2838 1.1794 10.6224 0.763668 10.6224Z" fill="#39A8CD"/>
<path d="M4.58447 10.8745C4.16874 10.8745 3.83179 10.5359 3.83179 10.1182C3.83179 7.08904 6.28453 4.62475 9.29927 4.62475C9.715 4.62475 10.0519 4.96329 10.0519 5.38097C10.0519 5.79866 9.715 6.1372 9.29927 6.1372C7.11448 6.1372 5.33715 7.9229 5.33715 10.1182C5.33715 10.5357 5.0002 10.8745 4.58447 10.8745Z" fill="#39A8CD"/>
<path d="M16.504 2.10651C16.504 2.10651 13.7941 4.59047 12.7032 5.91664C12.4488 6.22593 12.0463 6.97939 12.9385 7.50396C12.9385 7.50396 14.4401 8.06256 14.978 9.00834C14.978 9.00834 15.3908 9.83742 14.8664 10.7487C14.8664 10.7487 12.7115 14.2077 9.48422 16.0992C9.48422 16.0992 8.70243 16.5575 7.9209 15.8593C7.9209 15.8593 7.07413 15.161 6.80567 13.9528C6.80567 13.9528 6.46948 12.8719 5.36002 13.5137C5.36002 13.5137 2.66919 15.6246 1.15027 17.6392C0.810062 18.0906 0.577482 19.0639 1.92353 19.7669C1.92353 19.7669 6.49557 21.9963 10.3282 20.1047C10.3282 20.1047 15.539 17.7743 18.9344 11.2553C18.9344 11.2553 21.2539 6.76311 18.7663 2.3722C18.4206 1.76319 17.5025 1.1509 16.504 2.10651Z" fill="#3AA8CD"/>
</svg>
