<svg width="48" height="50" viewBox="0 0 48 50" fill="none" xmlns="http://www.w3.org/2000/svg">
<path d="M35.3401 9.9657C40.8452 13.7027 44.4641 20.0297 44.4641 27.2077" stroke="#172933" stroke-width="2.3" stroke-miterlimit="10" stroke-linecap="round" stroke-linejoin="round"/>
<path d="M4.00361 33.3897C3.39946 31.4367 3.073 29.3607 3.073 27.2067C3.073 18.8097 8.02766 11.5747 15.1591 8.2937" stroke="#172933" stroke-width="2.3" stroke-miterlimit="10" stroke-linecap="round" stroke-linejoin="round"/>
<path d="M31.739 46.4027C29.2855 47.4317 26.5942 48.0007 23.7695 48.0007C17.0432 48.0007 11.0654 44.7757 7.28516 39.7807" stroke="#172933" stroke-width="2.3" stroke-miterlimit="10" stroke-linecap="round" stroke-linejoin="round"/>
<path d="M35.2864 16.8277C37.4382 19.2347 38.8526 22.3217 39.1721 25.7287" stroke="#172933" stroke-width="2.3" stroke-miterlimit="10" stroke-linecap="round" stroke-linejoin="round"/>
<path d="M8.3571 28.5938C8.31629 28.1368 8.29639 27.6747 8.29639 27.2067C8.29639 21.9077 10.935 17.2278 14.964 14.4218" stroke="#172933" stroke-width="2.3" stroke-miterlimit="10" stroke-linecap="round" stroke-linejoin="round"/>
<path d="M26.622 42.4877C25.6974 42.6617 24.7439 42.7517 23.7695 42.7517C18.8934 42.7517 14.5439 40.4847 11.7073 36.9437" stroke="#172933" stroke-width="2.3" stroke-miterlimit="10" stroke-linecap="round" stroke-linejoin="round"/>
<path d="M23.7696 33.2527C27.0925 33.2527 29.7863 30.5463 29.7863 27.2077C29.7863 23.8691 27.0925 21.1627 23.7696 21.1627C20.4467 21.1627 17.7529 23.8691 17.7529 27.2077C17.7529 30.5463 20.4467 33.2527 23.7696 33.2527Z" stroke="#172933" stroke-width="2.76" stroke-miterlimit="10" stroke-linecap="round" stroke-linejoin="round"/>
<path d="M23.7695 29.2007C24.8651 29.2007 25.7532 28.3084 25.7532 27.2077C25.7532 26.107 24.8651 25.2147 23.7695 25.2147C22.674 25.2147 21.7859 26.107 21.7859 27.2077C21.7859 28.3084 22.674 29.2007 23.7695 29.2007Z" stroke="#172933" stroke-width="2.3" stroke-miterlimit="10" stroke-linecap="round" stroke-linejoin="round"/>
<path d="M21.8266 21.3127V2.64671C21.8266 2.64671 21.751 1.81072 22.808 2.03972C22.808 2.03972 30.1335 4.16372 30.1335 15.7727C30.1335 15.7727 29.9653 20.4807 28.0095 22.5747" stroke="#172933" stroke-width="2.76" stroke-miterlimit="10" stroke-linecap="round" stroke-linejoin="round"/>
<path d="M29.9881 28.4337L46.0166 37.8597C46.0166 37.8597 46.7721 38.2157 46.0415 39.0167C46.0415 39.0167 40.5116 44.2917 30.5425 38.4287C30.5425 38.4287 26.8429 35.9317 25.771 33.1397" stroke="#172933" stroke-width="2.76" stroke-miterlimit="10" stroke-linecap="round" stroke-linejoin="round"/>
<path d="M19.5275 32.2217L3.4243 41.5177C3.4243 41.5177 2.74251 41.9987 2.41207 40.9647C2.41207 40.9647 0.601601 33.5227 10.6174 27.7407C10.6174 27.7407 14.6813 25.6307 17.6274 26.2177" stroke="#172933" stroke-width="2.76" stroke-miterlimit="10" stroke-linecap="round" stroke-linejoin="round"/>
</svg>
